# xmcd CD database file
#
# Track frame offsets:
#	150
#	19062
#	33162
#	49550
#	66387
#	86337
#	103645
#	120790
#	141257
#	157167
#	172517
#	197750
#	214837
#
# Disc length: 3156 seconds
#
# Revision: 11
# Processed by: cddbd v1.5.2PL0 Copyright (c) Steve Scherf et al.
# Submitted via: CDex 1.70beta2
#
DISCID=a30c520d
DTITLE=Pe Werner - Los!
DYEAR=1993
DGENRE=Deutsch Pop/Rock
TTITLE0=Mehr
TTITLE1=Los
TTITLE2=Leben auf Rädern
TTITLE3=Liebenszeichen
TTITLE4=Deine Stimme
TTITLE5=Das Wüste lebt
TTITLE6=Soweit die Träume tragen
TTITLE7=Lieb and teuer
TTITLE8=Lola
TTITLE9=Kein Lippenstift
TTITLE10=Das Lebkuchenherz
TTITLE11=Vaterseelenallein
TTITLE12=Blaue Stunde
EXTD=YEAR: 1993
EXTT0=
EXTT1=
EXTT2=
EXTT3=
EXTT4=
EXTT5=
EXTT6=
EXTT7=
EXTT8=
EXTT9=
EXTT10=
EXTT11=
EXTT12=
PLAYORDER=
